<svg width="49" height="48" viewBox="0 0 49 48" fill="none" xmlns="http://www.w3.org/2000/svg">
<g clip-path="url(#clip0_5_671)">
<g clip-path="url(#clip1_5_671)">
<mask id="mask0_5_671" style="mask-type:luminance" maskUnits="userSpaceOnUse" x="0" y="0" width="48" height="48">
<path d="M0.48877 0.720215H47.5464V47.1489H0.48877V0.720215Z" fill="white"/>
</mask>
<g mask="url(#mask0_5_671)">
<path d="M33.1826 17.4838C34.7026 19.5218 35.5232 21.9965 35.5219 24.5388C35.5219 31.1383 30.0734 36.5075 23.3769 36.5075C16.6794 36.5075 11.2319 31.1383 11.2319 24.5388C11.2319 17.9383 16.6794 12.5692 23.3769 12.5692C26.0806 12.5692 28.5805 13.444 30.6004 14.9222L34.0995 11.474C31.0552 9.0427 27.273 7.72174 23.3769 7.72903C13.9718 7.72903 6.31927 15.2699 6.31927 24.5388C6.31927 33.8077 13.9718 41.3486 23.3769 41.3486C32.782 41.3486 40.4336 33.8077 40.4336 24.5388C40.4336 20.5666 39.0288 16.9127 36.6837 14.0327L33.1826 17.4838Z" fill="#607987" fill-opacity="0.1"/>
<path d="M23.7727 24.2036C24.4659 22.0672 25.5969 20.0988 27.0935 18.424C25.9684 17.758 24.6844 17.4077 23.3769 17.4102C19.388 17.4102 16.1436 20.6076 16.1436 24.5387C16.1436 28.4688 19.388 31.6671 23.3769 31.6671C27.3658 31.6671 30.6102 28.4698 30.6102 24.5387C30.6114 23.273 30.2699 22.0307 29.6218 20.9436C27.9154 22.418 25.9251 23.5275 23.7737 24.2036H23.7727Z" fill="#607987" fill-opacity="0.1"/>
<path d="M47.277 9.5678C47.399 9.448 47.4843 9.29587 47.5228 9.12929C47.5613 8.9627 47.5515 8.78859 47.4945 8.62739C47.4365 8.46539 47.3341 8.32299 47.1989 8.21645C47.0638 8.10992 46.9015 8.04355 46.7304 8.02494L43.0148 7.60862L40.6109 5.23996L40.1887 1.57825C40.1684 1.40789 40.1003 1.24675 39.9923 1.11345C39.8844 0.980147 39.7408 0.880125 39.5784 0.824943C39.4153 0.768495 39.2397 0.758668 39.0713 0.796567C38.9029 0.834466 38.7484 0.918588 38.6253 1.03947L34.989 4.62282C34.8891 4.72274 34.7931 4.82658 34.7049 4.93433C31.2449 2.99415 27.3438 1.97736 23.3769 1.98184C17.2643 1.98184 11.516 4.32796 7.1931 8.58821C2.87016 12.8485 0.48877 18.5134 0.48877 24.5389C0.48877 30.5634 2.86918 36.2284 7.1931 40.4896C11.516 44.7498 17.2633 47.096 23.3769 47.096C29.4896 47.096 35.2378 44.7498 39.5608 40.4896C43.8837 36.2284 46.2651 30.5644 46.2651 24.5389C46.2651 20.6352 45.2453 16.8168 43.3097 13.444C43.4243 13.3529 43.535 13.256 43.6408 13.1511L47.277 9.5678ZM42.3418 11.8679C42.1101 12.0967 41.8299 12.2705 41.522 12.3764C41.2141 12.4824 40.8863 12.5178 40.5629 12.4801L39.6617 12.3792L42.6886 9.39735L44.6282 9.61482L42.3418 11.8679ZM29.7541 19.5802C28.4861 20.8264 27.0144 21.8468 25.4027 22.5974C26.1687 21.0031 27.204 19.553 28.463 18.3107L39.8684 7.07082L41.1575 8.34233L29.7541 19.5802ZM22.9694 23.716L22.9635 23.7209L21.983 24.6878C21.8977 24.7714 21.8299 24.8711 21.7836 24.9811C21.7373 25.0912 21.7135 25.2093 21.7134 25.3287C21.7133 25.4481 21.737 25.5663 21.7831 25.6765C21.8292 25.7866 21.8968 25.8864 21.982 25.9701C22.1553 26.1409 22.3891 26.2363 22.6324 26.2356C22.8675 26.2356 23.1026 26.1474 23.2819 25.9711L24.2625 25.0042L24.2684 24.9983C26.8173 24.159 29.1391 22.7446 31.054 20.8645L33.0386 18.9082C34.0656 20.6066 34.607 22.5542 34.604 24.5389C34.604 30.6388 29.5689 35.6014 23.3779 35.6014C17.1869 35.6014 12.1518 30.6388 12.1518 24.5389C12.1518 18.439 17.1869 13.4764 23.3779 13.4764C25.437 13.4764 27.4187 14.021 29.1614 15.0604L27.165 17.0274C25.2657 18.9006 23.8291 21.1907 22.9694 23.716ZM38.5773 3.65009L38.7977 5.56225L35.7707 8.54609L35.6679 7.6576C35.6305 7.33759 35.6671 7.01329 35.7748 6.70964C35.8824 6.40599 36.0583 6.13108 36.2889 5.90609L38.5773 3.65009ZM44.4264 24.5389C44.4264 35.9766 34.9831 45.2818 23.3769 45.2818C11.7697 45.2818 2.32746 35.9766 2.32746 24.5389C2.32746 13.1002 11.7707 3.79507 23.3769 3.79507C27.0896 3.79507 30.716 4.75409 33.9056 6.57221C33.8145 6.98951 33.791 7.42445 33.8409 7.86233L34.1093 10.183L30.4946 13.7448C28.3726 12.3787 25.9007 11.6554 23.3769 11.6622C16.173 11.6622 10.3121 17.4388 10.3121 24.5389C10.3121 31.639 16.173 37.4147 23.3769 37.4147C30.5808 37.4147 36.4417 31.639 36.4417 24.5389C36.4417 22.0566 35.7276 19.6664 34.3728 17.5916L37.9993 14.0191L40.3552 14.2826C40.785 14.3302 41.2197 14.3104 41.6434 14.2238C43.4677 17.3552 44.428 20.9148 44.4264 24.5389Z" fill="#4E6575"/>
</g>
</g>
</g>
<defs>
<clipPath id="clip0_5_671">
<rect width="48" height="48" fill="white" transform="translate(0.380005)"/>
</clipPath>
<clipPath id="clip1_5_671">
<rect width="48" height="48" fill="white" transform="translate(0.380005)"/>
</clipPath>
</defs>
</svg>
