<svg width="49" height="48" viewBox="0 0 49 48" fill="none" xmlns="http://www.w3.org/2000/svg">
<g clip-path="url(#clip0_5_637)">
<g clip-path="url(#clip1_5_637)">
<path d="M24.0175 41.4664C33.6998 41.4664 41.5483 33.7217 41.5483 24.1687C41.5483 14.6157 33.6998 6.87207 24.0175 6.87207C14.3352 6.87207 6.48578 14.6157 6.48578 24.1687C6.48578 33.7217 14.3352 41.4654 24.0175 41.4654V41.4664Z" fill="#607987" fill-opacity="0.1"/>
<path d="M33.3766 21.2236L27.4814 20.3782L24.8443 15.108C24.7672 14.9548 24.6489 14.826 24.5027 14.7362C24.3565 14.6464 24.1881 14.5991 24.0166 14.5996C23.6659 14.5996 23.3446 14.7965 23.1898 15.107L20.5527 20.3782L14.6576 21.2236C13.9023 21.3314 13.5996 22.2502 14.1462 22.7763L18.4123 26.8788L17.4053 32.6721C17.276 33.4146 18.0675 33.9828 18.7444 33.6321L24.0166 30.8971L29.2897 33.6321C29.9627 33.9808 30.7591 33.4166 30.6288 32.6721L29.6218 26.8788L33.8879 22.7763C34.4345 22.2512 34.1328 21.3323 33.3766 21.2236ZM27.9859 25.909C27.8791 26.0114 27.7992 26.1385 27.7531 26.2791C27.7069 26.4197 27.6961 26.5694 27.7214 26.7152L28.4943 31.1626L24.4466 29.0633C24.3139 28.9946 24.1665 28.9587 24.0171 28.9587C23.8676 28.9587 23.7203 28.9946 23.5875 29.0633L19.5398 31.1626L20.3137 26.7152C20.3388 26.5693 20.3276 26.4194 20.2811 26.2788C20.2347 26.1383 20.1544 26.0112 20.0473 25.909L16.7725 22.7596L21.2982 22.1111C21.4457 22.0905 21.586 22.0345 21.7072 21.9478C21.8283 21.8612 21.9266 21.7465 21.9937 21.6135L24.0166 17.5678L26.0404 21.6135C26.1074 21.7465 26.2057 21.8613 26.3269 21.9479C26.448 22.0346 26.5884 22.0906 26.7359 22.1111L31.2616 22.7606L27.9859 25.909Z" fill="#4E6575"/>
<path d="M47.5454 24.1693C47.5454 23.3602 47.1644 22.6676 46.8284 22.0563C46.2661 21.0337 46.2455 20.9426 46.5051 19.7602C46.654 19.0892 46.8215 18.327 46.5991 17.5708C46.2171 16.2748 44.8868 15.5695 44.5508 14.8377C44.208 14.0893 44.541 12.6307 43.8142 11.5061C43.0844 10.3767 41.6042 10.0681 41.0752 9.4588C40.5423 8.84753 40.4453 7.3468 39.4295 6.46908C38.4107 5.58843 36.9071 5.70794 36.2223 5.26908C35.5405 4.83219 35.0292 3.41961 33.7969 2.85831C33.069 2.52623 32.2834 2.58304 31.5898 2.633C30.3947 2.71921 30.3134 2.69374 29.3691 1.98843C28.8088 1.57014 28.174 1.09504 27.3658 0.97945C26.5792 0.868757 25.8465 1.14206 25.2 1.38402C24.0695 1.80525 23.9657 1.80525 22.8352 1.38402C22.1887 1.14206 21.455 0.868757 20.6684 0.98043C19.8612 1.09504 19.2254 1.57014 18.6651 1.98941C17.7227 2.69276 17.6404 2.71921 16.4444 2.633C15.7508 2.58304 14.9652 2.52623 14.2373 2.85831C13.5026 3.19333 13.0305 3.82419 12.6132 4.38157C11.903 5.33178 11.8275 5.37978 10.6638 5.63153C9.98297 5.77847 9.21204 5.945 8.60567 6.46908C7.9993 6.99219 7.72501 7.72688 7.48306 8.37635C7.06673 9.4921 7.00599 9.56165 5.96175 10.1259C5.3495 10.457 4.65497 10.8322 4.22003 11.5061C3.49318 12.6297 3.82624 14.0923 3.48338 14.8368C3.14738 15.5685 1.81612 16.2777 1.43603 17.5698C1.06085 18.8433 1.79359 20.1579 1.67701 20.9729C1.56534 21.7566 0.48877 22.8195 0.48877 24.1683C0.48877 25.5202 1.56436 26.5791 1.67701 27.3648C1.79457 28.1876 1.05987 29.4905 1.43506 30.7669C1.8171 32.0629 3.14738 32.7682 3.48338 33.4999C3.82624 34.2474 3.49318 35.707 4.22003 36.8315C4.94983 37.961 6.42999 38.2696 6.95897 38.8789C7.49187 39.4901 7.58885 40.9909 8.60469 41.8686C9.62346 42.7492 11.1271 42.6297 11.8119 43.0686C12.4937 43.5055 13.005 44.9181 14.2373 45.4794C15.4589 46.0358 16.8724 45.5009 17.6561 45.7301C18.4251 45.9545 19.3195 47.1662 20.6684 47.3572C21.4305 47.465 22.1299 47.2172 22.8352 46.9537C23.9657 46.5324 24.0685 46.5324 25.199 46.9537C25.8455 47.1956 26.5792 47.4689 27.3658 47.3572C28.7137 47.1662 29.614 45.9525 30.3791 45.7301C31.1657 45.4999 32.5724 46.0377 33.7978 45.4794C35.0311 44.9171 35.5415 43.5055 36.2223 43.0696C36.9051 42.6307 38.4117 42.7473 39.4285 41.8696C40.4453 40.9909 40.5433 39.4892 41.0742 38.8779C41.6062 38.2686 43.0834 37.962 43.8142 36.8315C44.541 35.7079 44.2089 34.2454 44.5508 33.5009C44.8868 32.7692 46.2181 32.0609 46.5982 30.7679C46.9733 29.4944 46.2406 28.1798 46.3572 27.3648C46.4689 26.5811 47.5454 25.5182 47.5454 24.1693ZM44.5293 27.111C44.3578 28.314 45.021 29.6012 44.8271 30.2595C44.6262 30.9412 43.3773 31.6446 42.8698 32.7496C42.3575 33.8643 42.6396 35.2642 42.2586 35.8529C41.8765 36.4436 40.4786 36.7698 39.6754 37.6916C38.8711 38.6154 38.7457 40.0387 38.2128 40.4991C37.6878 40.9527 36.2488 40.8812 35.2163 41.5424C34.1906 42.2007 33.6626 43.5359 33.023 43.8268C32.3941 44.1128 31.0413 43.6377 29.855 43.9835C28.6942 44.3235 27.8017 45.4559 27.1023 45.5558C26.4342 45.6518 25.2538 44.8142 24.0166 44.8142C22.7696 44.8142 21.6068 45.6528 20.9309 45.5558C20.5959 45.5078 20.1991 45.211 19.7789 44.8975C18.8483 44.202 18.2821 43.8503 17.1193 43.8503C16.3023 43.8503 15.452 44.0276 15.0112 43.8268C14.3706 43.5349 13.8465 42.2017 12.8169 41.5424C11.7854 40.8802 10.3474 40.9546 9.82134 40.4991C9.28648 40.0377 9.16501 38.6183 8.35881 37.6916C7.55555 36.7688 6.15865 36.4446 5.77563 35.8529C5.39652 35.2671 5.67473 33.8604 5.16436 32.7496C4.65693 31.6446 3.40795 30.9422 3.20714 30.2595C3.01318 29.5982 3.67734 28.3228 3.50395 27.1101C3.3335 25.913 2.33432 24.8923 2.33432 24.1693C2.33432 23.4454 3.3335 22.4257 3.50395 21.2276C3.67636 20.0237 3.01416 18.7365 3.20714 18.0782C3.40795 17.3964 4.65693 16.6931 5.16436 15.5881C5.67669 14.4733 5.39457 13.0745 5.77563 12.4848C6.15767 11.8941 7.55555 11.5688 8.35881 10.6461C9.16306 9.72231 9.28844 8.29896 9.82134 7.83855C10.3464 7.385 11.7854 7.45749 12.8179 6.79529C13.8435 6.137 14.3715 4.8028 15.0112 4.51088C15.6362 4.2268 16.9978 4.69896 18.1792 4.35414C19.34 4.01521 20.2324 2.88182 20.9319 2.78288C21.6039 2.68688 22.7784 3.52345 24.0176 3.52345C25.2617 3.52345 26.4274 2.6859 27.1033 2.78288C27.8115 2.8828 28.6785 4.01031 29.856 4.35414C31.0315 4.697 32.399 4.2268 33.024 4.51088C33.6636 4.8028 34.1877 6.13602 35.2163 6.79529C36.2488 7.45749 37.6868 7.38402 38.2138 7.83855C38.7477 8.29994 38.8682 9.71937 39.6754 10.6461C40.4786 11.5698 41.8765 11.8931 42.2586 12.4848C42.6377 13.0706 42.3595 14.4772 42.8698 15.5881C43.3773 16.6931 44.6253 17.3964 44.8271 18.0782C45.021 18.7395 44.3569 20.0149 44.5302 21.2276C44.7007 22.4247 45.6999 23.4454 45.6999 24.1693C45.6999 24.8923 44.7007 25.912 44.5293 27.111Z" fill="#4E6575"/>
</g>
</g>
<defs>
<clipPath id="clip0_5_637">
<rect width="48" height="48" fill="white" transform="translate(0.380005)"/>
</clipPath>
<clipPath id="clip1_5_637">
<rect width="48" height="48" fill="white" transform="translate(0.380005)"/>
</clipPath>
</defs>
</svg>
