<svg width="17" height="17" viewBox="0 0 17 17" fill="none" xmlns="http://www.w3.org/2000/svg">
<path d="M14.6219 7.8106C14.9379 8.22394 14.9379 8.78194 14.6219 9.1946C13.6265 10.4939 11.2385 13.1693 8.45052 13.1693C5.66252 13.1693 3.27452 10.4939 2.27919 9.1946C2.12545 8.99669 2.04199 8.75322 2.04199 8.5026C2.04199 8.25199 2.12545 8.00852 2.27919 7.8106C3.27452 6.51127 5.66252 3.83594 8.45052 3.83594C11.2385 3.83594 13.6265 6.51127 14.6219 7.8106Z" stroke="white" stroke-width="1.5" stroke-linecap="round" stroke-linejoin="round"/>
<path d="M8.4502 10.5C9.55477 10.5 10.4502 9.60457 10.4502 8.5C10.4502 7.39543 9.55477 6.5 8.4502 6.5C7.34563 6.5 6.4502 7.39543 6.4502 8.5C6.4502 9.60457 7.34563 10.5 8.4502 10.5Z" stroke="white" stroke-width="1.5" stroke-linecap="round" stroke-linejoin="round"/>
</svg>
